# xmcd CD database file
#
# Track frame offsets:
#	150
#	30267
#	50612
#	71934
#	93606
#	131678
#	170773
#	190988
#	242833
#	269533
#	292122
#
# Disc length: 4190 seconds
#
# Revision: 0
# Processed by: cddbd v1.5.2PL0 Copyright (c) Steve Scherf et al.
# Submitted via: CDex 1.70beta2
#
DISCID=af105c0b
DTITLE=Joe Metzka and Friends - Joe Metzka and Friends Live Vol. 2
DYEAR=2005
DGENRE=Jazz
TTITLE0=Tell Me How Do You Feel
TTITLE1=Early in the Morning
TTITLE2=Someday, After a While (You'll Be Sorry)
TTITLE3=Mary Had a Lamb
TTITLE4=Old Love
TTITLE5=Breezin'
TTITLE6=Caldonia
TTITLE7=Cissy Strut
TTITLE8=I Shot the Sheriff
TTITLE9=Nightlife
TTITLE10=Will it Go 'Round in Circles
EXTD=YEAR: 2005
EXTT0=
EXTT1=
EXTT2=
EXTT3=
EXTT4=
EXTT5=
EXTT6=
EXTT7=
EXTT8=
EXTT9=
EXTT10=
PLAYORDER=
